<?xml version="1.0" encoding="UTF-8"?>
<svg width="380px" height="405px" viewBox="0 0 380 405" version="1.1" xmlns="http://www.w3.org/2000/svg" xmlns:xlink="http://www.w3.org/1999/xlink">
    <!-- Generator: Sketch 46.2 (44496) - http://www.bohemiancoding.com/sketch -->
    <title>Group</title>
    <desc>Created with Sketch.</desc>
    <defs></defs>
    <g id="Page-1" stroke="none" stroke-width="1" fill="none" fill-rule="evenodd" opacity="0.390058877">
        <g id="Group">
            <g id="Earth">
                <g id="Group-22">
                    <g id="Page-1">
                        <g id="Group-104">
                            <path d="M67.1036503,342.734351 C65.9144578,341.537595 64.9988526,340.078135 64.3094128,338.06773 C63.6236208,336.06827 63.2150639,333.514216 63.2150639,330.423811 C63.1895291,323.334486 65.4438878,313.541514 70.0620401,302.139486 C76.9564382,285.005432 89.0015717,264.219081 105.19064,241.955027 C121.372412,219.680027 141.690823,195.887189 165.120833,172.455568 C196.35355,141.208541 228.242877,115.496514 256.291039,97.7385405 C270.306001,88.8613784 283.361583,81.9727297 294.775642,77.3754324 C306.17511,72.7562432 315.965885,70.5013784 323.053618,70.5269189 C326.146977,70.5269189 328.700458,70.9355676 330.699468,71.6178649 C332.705775,72.3111081 334.164907,73.2269189 335.361395,74.4127297 C338.21035,77.265973 342.828502,77.265973 345.681105,74.4163784 C348.526412,71.5667838 348.526412,66.9475946 345.681105,64.0943514 C342.795672,61.200973 339.242686,59.1066486 335.401521,57.8040811 C331.549413,56.4942162 327.409126,55.935973 323.053618,55.9323243 C313.073156,55.9578649 301.834192,58.8147568 289.322137,63.8389459 C270.583236,71.4025946 249.006324,84.0123243 226.028645,100.704892 C203.061909,117.401108 178.741829,138.191108 154.801123,162.133541 C122.886261,194.066514 96.5708182,226.656243 78.094561,255.838135 C68.8546085,270.436378 61.5698927,284.180838 56.5285921,296.681108 C51.5055307,309.199622 48.6492801,320.437459 48.6237453,330.423811 C48.6273931,334.780297 49.1855111,338.921514 50.4950819,342.774486 C51.7973571,346.616514 53.8948591,350.170297 56.787588,353.05273 C59.6328952,355.902324 64.2546953,355.902324 67.1036503,353.05273 C69.9526052,350.203135 69.9526052,345.583946 67.1036503,342.734351" id="Fill-2" fill="#2D3666"></path>
                            <path d="M201.232523,77.8264054 C273.426719,77.8264054 331.952498,136.365324 331.952498,208.57573 C331.952498,280.786135 273.426719,339.325054 201.232523,339.325054 C129.038326,339.325054 70.5125471,280.786135 70.5125471,208.57573 C70.5125471,136.365324 129.038326,77.8264054 201.232523,77.8264054" id="Fill-4" fill="#78D5DD"></path>
                            <path d="M204.357618,80.9708108 C160.685802,80.9708108 121.978681,102.402973 98.278732,135.335676 C104.819291,136.036216 115.883158,138.199865 120.763954,144.887838 C121.989625,145.829189 123.069382,146.898243 123.948509,148.120541 C126.55306,150.105405 128.555718,152.652162 129.288932,155.990676 C129.606293,157.399054 129.960133,158.683378 130.357746,159.858243 C130.361394,159.850946 130.368689,159.843649 130.372337,159.836351 C130.937751,161.51473 131.576121,162.992432 132.305687,164.258514 C132.389587,164.305946 132.477135,164.353378 132.561035,164.397162 C153.970147,136.426622 186.377466,117.373378 223.322685,113.695541 C220.8604,108.857432 219.525294,103.450135 219.671207,98.0027027 C219.780642,92.8581081 221.093861,87.5310811 219.383029,82.6783784 L219.496111,81.8318919 C214.520472,81.2590541 209.46458,80.9708108 204.357618,80.9708108" id="Fill-6" fill="#48BBC7"></path>
                            <path d="M331.950309,207.920432 L331.950309,208.048135 L331.950309,207.920432 M331.950309,208.237865 L331.950309,208.526108 L331.950309,208.237865 M331.950309,208.584486 C331.946661,267.298541 293.250485,316.974892 239.973933,333.485027 C293.268724,316.978541 331.950309,267.309486 331.950309,208.595432 L331.950309,208.584486 M103.66913,295.615703 L103.672778,295.615703 C103.66913,295.612054 103.672778,295.615703 103.66913,295.615703 M157.810218,331.938 C171.380144,336.739622 186.004293,339.322865 201.215743,339.322865 L201.223038,339.322865 C186.004293,339.322865 171.391087,336.721378 157.810218,331.938" id="Fill-8" fill="#9AE0E6"></path>
                            <path d="M296.100169,131.669514 C304.304138,148.759784 308.896755,167.918838 308.896755,188.161541 C308.896755,260.404784 250.389216,318.929108 178.158541,318.929108 C165.186859,318.929108 152.652916,317.039108 140.823004,313.514514 C144.817378,319.731811 150.044718,325.752081 156.636346,331.516946 C157.026664,331.659243 157.416981,331.797892 157.807299,331.936541 C171.391817,336.719919 186.005022,339.321405 201.223768,339.325054 C214.713442,339.321405 227.732546,337.278162 239.974662,333.487216 C293.251214,316.973432 331.947391,267.297081 331.951039,208.583027 L331.951039,208.528297 L331.951039,208.236405 L331.951039,208.046676 L331.951039,207.918973 C331.823365,182.779784 324.582423,159.304378 312.18345,139.415595 C311.019792,137.832081 309.819656,136.277757 308.58669,134.752622 C308.50279,134.701541 308.422538,134.650459 308.342285,134.599378 C304.107155,133.13627 300.036177,132.213162 296.100169,131.669514" id="Fill-10" fill="#A8EFF3"></path>
                            <path d="M79.3118418,361.262554 C69.7873586,361.262554 62.2545903,358.526068 56.7864937,353.053095 C53.9375387,350.2035 53.9375387,345.580662 56.7864937,342.734716 C59.6354486,339.885122 64.253601,339.885122 67.1025559,342.734716 C73.0047443,348.634581 87.2677582,347.762554 106.24012,340.355797 C109.990089,338.878095 114.217924,340.742554 115.691647,344.493365 C117.154427,348.247824 115.301329,352.480257 111.547712,353.943365 C99.0684871,358.825257 88.3037419,361.262554 79.3118418,361.262554" id="Fill-12" fill="#2D3666"></path>
                            <path d="M292.95574,200.348027 C291.383525,200.348027 289.807663,199.844514 288.472557,198.804649 C285.295298,196.323568 284.726236,191.740865 287.20676,188.562892 C333.895332,128.692216 346.775819,85.8205946 335.365407,74.4112703 C332.516452,71.5653243 332.516452,66.9424865 335.365407,64.0928919 C338.207067,61.2432973 342.832515,61.2432973 345.68147,64.0928919 C365.770067,84.1750541 348.209416,134.063027 298.712015,197.538568 C297.27477,199.381135 295.126199,200.348027 292.95574,200.348027" id="Fill-14" fill="#2D3666"></path>
                            <path d="M215.67428,286.226635 C212.511612,286.226635 209.596996,284.150554 208.670447,280.957986 C207.546916,277.08677 209.77574,273.040419 213.646087,271.916635 L279.752056,252.750284 C283.604164,251.641095 287.667846,253.855824 288.791378,257.727041 C289.914909,261.598257 287.686085,265.644608 283.815738,266.768392 L217.709769,285.934743 C217.031273,286.13177 216.349129,286.226635 215.67428,286.226635" id="Fill-16" fill="#2D3666"></path>
                            <path d="M215.685224,286.222986 C215.273019,286.222986 214.853518,286.1865 214.434018,286.117176 C210.461532,285.427581 207.802264,281.65123 208.488056,277.6815 L220.230419,209.845824 C220.923507,205.876095 224.699011,203.227176 228.664201,203.902176 C232.63304,204.588122 235.295956,208.364473 234.606516,212.334203 L222.8678,280.169878 C222.251317,283.720014 219.168901,286.222986 215.685224,286.222986" id="Fill-18" fill="#2D3666"></path>
                            <path d="M230.269247,269.910973 C228.536527,269.910973 226.800161,269.298 225.40669,268.050162 C222.404526,265.364757 222.149178,260.749216 224.837628,257.746378 L263.763618,214.243541 C266.444773,211.244351 271.059278,210.981649 274.065089,213.674351 C277.067253,216.359757 277.318953,220.975297 274.634151,223.978135 L235.708161,267.480973 C234.270916,269.090027 232.275553,269.910973 230.269247,269.910973" id="Fill-20" fill="#2D3666"></path>
                            <path d="M239.855013,295.673351 C229.104859,307.684703 210.657785,308.706324 198.64913,297.957405 C186.636827,287.204838 185.615434,268.753622 196.365588,256.738622 C207.112094,244.72727 225.562817,243.705649 237.571472,254.458216 C249.580127,265.207135 250.605167,283.662 239.855013,295.673351" id="Fill-22" fill="#E8F3FF"></path>
                            <path d="M219.854328,79.1395541 C256.952756,84.4300946 289.053657,105.300365 309.262633,134.927392 C295.043393,129.771851 282.666307,130.804419 271.153756,131.836986 C260.421842,132.796581 250.44138,133.759824 240.428087,129.709824 C227.988988,124.674689 219.307154,111.466581 219.671937,98.0030676 C219.781371,92.858473 221.09459,87.5314459 219.38011,82.6787432 L219.854328,79.1395541" id="Fill-24" fill="#FFDCA1"></path>
                            <path d="M295.457421,117.933811 C300.516961,123.195162 305.135114,128.876108 309.260809,134.925568 C309.260809,134.925568 309.257161,134.921919 309.253513,134.921919 C309.366596,135.086108 309.476031,135.246649 309.585466,135.407189 C309.800688,135.553135 310.012262,135.70273 310.220188,135.848676 C311.205102,136.541919 312.190016,137.235162 313.178578,137.928405 L312.73719,137.235162 C312.372408,136.797324 312.044103,136.323 311.715798,135.885162 C310.475536,134.24327 309.202444,132.601378 307.849099,131.032459 L307.265446,130.339216 C305.955875,128.770297 304.566052,127.201378 303.143399,125.705432 L302.851572,125.413541 C301.469045,123.881108 300.006265,122.421649 298.514303,120.998676 L298.076563,120.597324 L297.967128,120.498811 C297.135423,119.641378 296.318309,118.765703 295.457421,117.933811" id="Fill-26" fill="#FFE5B9"></path>
                            <path d="M308.509356,134.657757 C308.537144,134.693492 308.564932,134.725257 308.59272,134.760992 C308.953962,134.991286 309.319174,135.229521 309.680417,135.475698 C309.561326,135.297021 309.442235,135.122316 309.319174,134.94761 C309.049235,134.848345 308.779295,134.753051 308.509356,134.657757" id="Fill-28" fill="#78BFA0"></path>
                            <path d="M308.341191,134.599743 C308.428524,134.655331 308.519827,134.71092 308.607161,134.766508 C308.579373,134.730773 308.551585,134.699008 308.523797,134.663273 C308.464252,134.64342 308.400736,134.619596 308.341191,134.599743" id="Fill-30" fill="#A8D6B0"></path>
                            <path d="M223.000216,82.2843243 L222.525999,85.8235135 C224.240478,90.6762162 222.92726,96.0032432 222.817825,101.147838 C222.744868,104.176216 223.109651,107.204595 223.912174,110.123514 C224.765766,110.065135 225.641245,110.076081 226.502133,110.032297 C226.680876,111.152432 226.85962,112.276216 227.158742,113.370811 C230.222919,113.151892 233.327222,113.046081 236.427877,113.046081 C242.734975,113.046081 248.972763,113.483919 255.064639,114.359595 L255.976596,114.505541 C256.819245,114.611351 257.691076,114.757297 258.530077,114.903243 C262.360298,115.56 266.117563,116.366351 269.838349,117.347838 C271.70239,117.858649 273.559135,118.369459 275.386698,118.956892 C276.481047,119.28527 277.538917,119.646486 278.633266,120.011351 C281.547882,121.000135 284.466146,122.09473 287.311453,123.298784 C288.807063,123.955541 290.302673,124.612297 291.761805,125.301892 C293.111502,125.925811 294.424721,126.542432 295.73794,127.239324 C297.270028,128.005541 298.805764,128.841081 300.301374,129.683919 C300.881379,129.975811 301.428554,130.300541 301.979376,130.632568 C303.033599,131.252838 304.054991,131.836622 305.039905,132.493378 C306.061297,133.077162 307.009733,133.697432 307.994647,134.390676 C308.111378,134.456351 308.22446,134.529324 308.341191,134.598649 C308.395908,134.620541 308.454274,134.638784 308.508991,134.657027 C308.757044,134.744595 309.005096,134.832162 309.253148,134.923378 C309.256796,134.923378 309.260444,134.923378 309.260444,134.927027 C305.134749,128.877568 300.516596,123.192973 295.457057,117.93527 C295.391396,117.873243 295.329383,117.811216 295.263722,117.749189 L294.822334,117.347838 C293.439807,115.997838 292.013505,114.684324 290.5945,113.443784 L289.682542,112.641081 C288.329198,111.473514 286.94667,110.342432 285.560495,109.211351 C283.51771,107.605946 281.438447,106.037027 279.24975,104.504595 C277.717661,103.446486 276.112616,102.388378 274.507571,101.33027 C268.448526,97.4991892 262.068472,94.1059459 255.392944,91.2964865 C254.590421,90.9681081 253.787899,90.6397297 252.981728,90.3113514 C248.389111,88.4505405 243.719889,86.8816216 238.904754,85.6045946 C237.91984,85.3127027 236.898447,85.0572973 235.877055,84.8018919 C235.001576,84.582973 234.162575,84.3640541 233.287096,84.1816216 C232.265704,83.9627027 231.207833,83.7072973 230.146315,83.4883784 L229.639266,83.4154054 C228.581396,83.1964865 227.523525,83.0140541 226.462007,82.8316216 C225.407784,82.6491892 224.313435,82.4667568 223.255564,82.3208108 L223.000216,82.2843243" id="Fill-32" fill="#FFC675"></path>
                            <path d="M156.418206,172.106757 C168.200695,178.127027 173.417092,191.845946 150.76407,224.1 C125.338697,260.294595 120.377649,299.809459 156.637076,331.516216 C106.406461,313.309459 70.5118175,265.147297 70.5118175,208.593243 C70.5118175,181.301351 78.8653474,155.943243 93.1648396,135 C93.1648396,135 119.721039,135.109459 122.894651,149.594595 C127.454438,170.355405 141.352669,164.408108 156.418206,172.106757" id="Fill-34" fill="#FFDCA1"></path>
                            <path d="M121.891863,146.739527 C122.329602,147.6225 122.672498,148.571149 122.895016,149.59277 C124.715283,157.886149 128.023865,161.917905 132.302769,164.256689 C131.573203,162.994257 130.923889,161.542095 130.358476,159.856419 C129.979101,160.334392 129.581488,160.794122 129.213057,161.275743 C127.899838,159.086554 126.841968,156.313581 126.039445,152.741554 C125.660071,150.9975 124.923209,149.472365 123.949239,148.118716 C123.299925,147.6225 122.610485,147.166419 121.891863,146.739527" id="Fill-36" fill="#78BFA0"></path>
                            <path d="M120.763954,144.887108 C121.19075,145.470892 121.566476,146.087514 121.891133,146.740622 C122.609756,147.163865 123.299196,147.623595 123.948509,148.119811 C124.92248,149.473459 125.659341,150.994946 126.038716,152.739 C126.841238,156.314676 127.902757,159.087649 129.212327,161.276838 C129.580758,160.795216 129.982019,160.335486 130.357746,159.857514 C129.960133,158.682649 129.606293,157.398324 129.288932,155.989946 C128.555718,152.651432 126.55306,150.104676 123.948509,148.119811 C123.069382,146.897514 121.989625,145.828459 120.763954,144.887108" id="Fill-38" fill="#48A890"></path>
                            <path d="M110.161537,302.386135 C110.260029,302.491946 110.362168,302.594108 110.464307,302.699919 C111.310603,303.564649 112.20797,304.392892 113.079801,305.239378 L113.710875,305.950865 C115.392525,307.662081 117.103357,309.340459 118.890793,310.982351 C122.615228,314.448568 126.551236,317.663027 130.673283,320.691405 L130.713409,320.691405 C129.812395,319.465459 128.94786,318.243162 128.119802,316.988027 C121.706918,312.649784 115.695295,307.764243 110.161537,302.386135" id="Fill-40" fill="#FFE5B9"></path>
                            <path d="M96.3110927,138.1455 L95.982788,138.619824 C95.2532221,139.714419 94.5236562,140.809014 93.7940903,141.940095 C92.9186111,143.326581 92.0796103,144.749554 91.2369617,146.209014 C90.438087,147.559014 89.6720428,148.981986 88.9059985,150.368473 C87.4103884,153.177932 86.0242131,156.060365 84.7109944,158.979284 C84.0908634,160.47523 83.4306062,161.934689 82.8506013,163.430635 C79.7864244,171.16577 77.4518134,179.229284 75.8832467,187.584689 C75.6278986,188.934689 75.3725505,190.284689 75.190159,191.671176 C74.934811,193.313068 74.7159412,194.954959 74.5335497,196.596851 C74.1322885,199.880635 73.8769404,203.200905 73.7675055,206.557662 L73.7675055,206.667122 C73.6945489,208.3455 73.6580706,210.023878 73.6580706,211.702257 L73.6580706,211.738743 C73.6580706,213.198203 73.6945489,214.694149 73.7675055,216.153608 C73.7675055,217.102257 73.8039838,218.050905 73.8769404,218.963068 C73.8769404,219.400905 73.9134187,219.87523 73.949897,220.313068 C74.0228536,221.407662 74.0958102,222.46577 74.205245,223.523878 L74.2782016,224.363068 C74.4241148,226.041446 74.6065063,227.683338 74.8618544,229.32523 C74.9712893,230.383338 75.1172025,231.441446 75.2995939,232.499554 C75.554942,234.214419 75.8832467,235.892797 76.2115514,237.571176 C76.4668994,238.957662 76.7915563,240.344149 77.1235088,241.730635 C77.8530747,244.904959 78.7285538,248.042797 79.7134678,251.144149 C79.9688159,251.983338 80.224164,252.786041 80.5159903,253.588743 C80.6983818,254.136041 80.8807733,254.683338 81.0996431,255.267122 C81.3914695,256.179284 81.7197741,257.091446 82.0845571,258.003608 C82.5587749,259.244149 83.0329928,260.448203 83.5072106,261.652257 C84.1601722,263.184689 84.8204293,264.717122 85.513517,266.213068 C86.133648,267.599554 86.7902573,268.913068 87.4468667,270.263068 C88.8695202,273.109014 90.4016087,275.881986 92.0394842,278.618473 C92.4808716,279.348203 92.9186111,280.077932 93.392829,280.807662 C93.9764817,281.792797 94.5966128,282.741446 95.213096,283.726581 C95.9098314,284.784689 96.6393974,285.842797 97.4054416,286.900905 C98.7551386,288.798203 100.141314,290.6955 101.600446,292.556311 C102.36649,293.504959 103.092408,294.453608 103.898578,295.36577 C105.886646,297.773878 107.973204,300.112662 110.161902,302.38577 C115.695659,307.763878 121.703635,312.653068 128.120167,316.987662 C128.109224,316.969419 128.094632,316.951176 128.083689,316.932932 L127.791863,316.491446 C126.186818,314.123473 124.691207,311.711716 123.232076,309.234284 C122.834462,308.577527 122.469679,307.880635 122.104896,307.187392 C121.37533,305.9505 120.718721,304.673473 120.058464,303.429284 C119.365376,302.042797 118.672288,300.656311 118.055805,299.273473 C116.593026,296.168473 115.243329,293.034284 114.039545,289.786986 C113.528849,288.473473 113.054631,287.156311 112.616891,285.809959 C112.288587,284.894149 111.99676,283.985635 111.741412,283.073473 C111.340151,281.905905 110.979016,280.698203 110.647063,279.497797 C109.738754,276.246851 108.932583,272.963068 108.275974,269.642797 C107.947669,267.968068 107.619365,266.289689 107.367664,264.574824 C107.108668,262.896446 106.856968,261.177932 106.638098,259.466716 C106.273315,256.182932 105.981489,252.862662 105.868406,249.505905 C105.758971,247.604959 105.722493,245.707662 105.722493,243.814014 L105.722493,243.773878 C105.722493,242.0955 105.758971,240.384284 105.835576,238.702257 C105.868406,237.173473 105.981489,235.673878 106.087276,234.145095 L106.127402,233.561311 C106.233189,231.91577 106.415581,230.310365 106.597972,228.668473 C106.743886,227.354959 106.929925,226.004959 107.108668,224.691446 C107.145147,224.366716 107.181625,224.074824 107.254582,223.742797 C107.473451,222.286986 107.7288,220.827527 107.984148,219.404554 C108.057104,219.003203 108.130061,218.601851 108.239496,218.2005 C108.494844,216.8505 108.790318,215.464014 109.114975,214.114014 L109.114975,213.968068 C109.479758,212.468473 109.844541,210.976176 110.28228,209.48023 C110.574107,208.312662 110.902411,207.181581 111.267194,206.014014 C111.489712,205.171176 111.741412,204.368473 112.033238,203.532932 C112.325065,202.547797 112.65337,201.599149 113.018152,200.6505 C113.237022,199.92077 113.49237,199.191041 113.784197,198.497797 C114.586719,196.341446 115.42572,194.228878 116.337677,192.109014 C116.70246,191.233338 117.067243,190.357662 117.504983,189.522122 L117.57794,189.336041 C118.63581,187.004554 119.766637,184.702257 120.970421,182.443743 C121.667157,181.13023 122.396723,179.853203 123.122641,178.572527 L123.305032,178.280635 C124.071076,176.97077 124.837121,175.690095 125.639643,174.416716 C125.862161,174.084689 126.08103,173.719824 126.259774,173.395095 C126.95651,172.333338 127.645949,171.27523 128.375515,170.217122 C129.692382,168.283338 131.038431,166.389689 132.461085,164.528878 C132.410015,164.437662 132.355297,164.350095 132.304228,164.258878 C128.025324,161.916446 124.716742,157.884689 122.892827,149.594959 C122.67031,148.573338 122.331062,147.624689 121.893322,146.738068 C121.568665,146.088608 121.189291,145.468338 120.762495,144.888203 C112.08066,138.218473 96.3110927,138.1455 96.3110927,138.1455" id="Fill-42" fill="#FFC675"></path>
                            <path d="M60.1764218,19.7147432 C58.523955,20.6743378 57.1487232,22.0498784 56.189344,23.7027162 C57.4150147,22.2724459 58.7464726,20.9406892 60.1764218,19.7147432" id="Fill-52" fill="#E8F3FF"></path>
                            <path d="M60.1994031,19.7016081 C60.1921075,19.7052568 60.1848118,19.7089054 60.1775161,19.7162027 C58.7475669,20.9385 57.4124613,22.2739054 56.1904383,23.7041757 C56.1831427,23.711473 56.1794948,23.7187703 56.175847,23.7260676 C57.4124613,22.2812027 58.7548626,20.9385 60.1994031,19.7016081" id="Fill-54" fill="#D3E8FF"></path>
                            <path d="M105.790343,18.2428784 C108.55175,20.3153108 111.010387,22.7745 113.082354,25.536527 C113.082354,21.5120676 109.817547,18.2428784 105.790343,18.2428784" id="Fill-58" fill="#E8F3FF"></path>
                            <path d="M201.215013,85.1233378 C160.37756,85.1233378 122.239501,105.304014 99.1925133,139.112392 C85.2030867,159.603203 77.808936,183.629554 77.808936,208.593608 C77.808936,238.954014 88.9275207,268.132257 109.11461,290.75023 C122.684536,305.957797 139.978897,317.684554 159.13365,324.66077 C172.535776,329.549959 186.693003,332.027392 201.215013,332.027392 C269.279866,332.027392 324.657568,276.6555 324.657568,208.593608 C324.657568,185.45023 318.20091,162.865095 305.991624,143.2755 L305.568476,142.607797 C304.827966,141.44023 304.087457,140.25077 303.29223,139.119689 C283.721624,110.434014 252.955829,91.2311757 218.823087,86.3602297 C213.088698,85.5392838 207.168271,85.1233378 201.215013,85.1233378 M201.215013,346.621986 C184.982171,346.621986 169.139647,343.845365 154.136124,338.372392 C132.734307,330.57523 113.397162,317.469284 98.2294863,300.47023 C75.6494208,275.174149 63.2176174,242.544284 63.2176174,208.593608 C63.2176174,180.677797 71.4872472,153.809149 87.143732,130.884689 C112.904705,93.0956351 155.547834,70.5287432 201.215013,70.5287432 C207.854063,70.5287432 214.474874,70.9957703 220.887758,71.9152297 C259.058648,77.3590135 293.472273,98.8276622 315.289942,130.815365 C316.169069,132.063203 317.044548,133.449689 317.909083,134.817932 L318.343175,135.511176 C332.029832,157.457797 339.248887,182.717392 339.248887,208.593608 C339.248887,284.70077 277.326979,346.621986 201.215013,346.621986" id="Fill-66" fill="#2D3666"></path>
                            <path d="M309.264092,142.226149 C308.436035,142.226149 307.600682,142.083851 306.776272,141.784662 C293.903081,137.121689 282.445248,138.146959 271.377733,139.139392 C260.47437,140.11723 249.217168,141.127905 237.693674,136.475878 C222.339959,130.26223 211.929053,114.35777 212.377736,97.8038514 C212.410567,96.2239865 212.549184,94.5857432 212.69145,92.9511486 C212.957741,89.9410135 213.202146,87.0950676 212.501763,85.1138514 C211.155714,81.3156081 213.143781,77.1452027 216.944819,75.7988514 C220.734914,74.4525 224.908031,76.4410135 226.257728,80.2465541 C228.015982,85.2087162 227.596482,89.9993919 227.228051,94.2208784 C227.11132,95.5343919 226.990942,96.8515541 226.965407,98.1577703 C226.680876,108.622095 233.495022,119.031689 243.165419,122.946689 C251.413162,126.274257 260.062166,125.497095 270.075458,124.603176 C282.149774,123.523176 295.832783,122.293581 311.751912,128.065743 C315.538359,129.437635 317.497243,133.626284 316.122012,137.413581 C315.04955,140.379932 312.244369,142.2225 309.264092,142.226149" id="Fill-68" fill="#2D3666"></path>
                            <path d="M156.632333,338.814973 C154.928797,338.814973 153.214317,338.220243 151.835437,337.012541 C116.159663,305.816595 113.664548,264.225649 144.795126,219.905514 C159.397388,199.115514 159.886197,189.172946 158.872101,185.097405 C158.441657,183.357 157.372843,180.788351 153.097586,178.606459 C149.1251,176.570514 145.035883,175.629162 141.077988,174.720649 C133.632767,173.013081 125.195337,171.072 119.774663,161.819027 C118.060183,158.962135 116.73602,155.463081 115.776641,151.197811 C114.343044,144.648486 99.6204038,142.346189 93.1236192,142.298757 C89.0964152,142.265919 85.8534947,138.978486 85.8790295,134.957676 C85.9009165,130.940514 89.1547805,127.704162 93.1673931,127.704162 L93.1965758,127.704162 C96.5161007,127.718757 125.720625,128.404703 130.021416,148.034432 C130.616012,150.679703 131.393,152.821459 132.323197,154.372135 C134.511894,158.104703 137.587015,158.943892 144.346443,160.498216 C148.950004,161.556324 154.162753,162.753081 159.743932,165.609973 C166.733174,169.182 171.329439,174.706054 173.036623,181.587405 C175.933,193.274027 170.599873,208.554568 156.734473,228.293757 C138.152428,254.750108 123.882119,293.181324 161.436525,326.022811 C164.471519,328.679027 164.777937,333.28727 162.129613,336.319297 C160.685072,337.972135 158.664174,338.814973 156.632333,338.814973" id="Fill-70" fill="#2D3666"></path>
                            <path d="M244.878804,264.527027 C233.643489,259.564865 220.000606,262.118919 211.391728,271.751351 C203.512416,280.544595 201.943849,292.767568 206.357723,302.910811 C203.621851,301.706757 201.031892,300.064865 198.660803,297.948649 C186.622965,287.221622 185.601572,268.759459 196.36267,256.755405 C207.123767,244.714865 225.545307,243.693243 237.583145,254.456757 C240.793235,257.339189 243.237281,260.805405 244.878804,264.527027" id="Fill-72" fill="#B8DAF2"></path>
                            <path d="M218.139483,254.311541 C217.727279,254.311541 217.311426,254.326135 216.899221,254.348027 C211.062694,254.672757 205.700384,257.252351 201.800854,261.608838 C197.901324,265.965324 195.931496,271.576946 196.256153,277.418432 C196.58081,283.259919 199.156178,288.619784 203.511686,292.520189 C212.499939,300.561811 226.368987,299.802892 234.419747,290.805324 C238.315629,286.448838 240.285457,280.837216 239.9608,274.99573 C239.639791,269.154243 237.060776,263.794378 232.705267,259.893973 C228.659824,256.270865 223.527328,254.311541 218.139483,254.311541 M218.088414,312.675324 C209.424818,312.675324 200.735688,309.614108 193.779277,303.393162 C186.520096,296.894919 182.222953,287.959378 181.686722,278.228432 C181.146843,268.497486 184.42989,259.135054 190.926674,251.874243 C197.423459,244.613432 206.360641,240.315324 216.089403,239.775324 C225.814517,239.282757 235.178496,242.519108 242.437677,249.021 C249.696858,255.519243 253.994001,264.454784 254.53388,274.18573 C255.070111,283.916676 251.790712,293.279108 245.290279,300.539919 C238.100407,308.577892 228.11265,312.675324 218.088414,312.675324" id="Fill-74" fill="#2D3666"></path>
                            <path d="M379.4022,145.621581 C379.291048,145.744669 379.175927,145.863787 379.048897,145.974963 C379.175927,146.08614 379.291048,146.201287 379.4022,146.328346 C379.513352,146.201287 379.628473,146.08614 379.755503,145.974963 C379.628473,145.863787 379.513352,145.744669 379.4022,145.621581" id="Fill-78" fill="#9AE0E6"></path>
                            <path d="M156.855945,390.40577 C152.843333,390.40577 149.560286,393.689554 149.560286,397.703068 C149.560286,401.716581 152.843333,405.000365 156.855945,405.000365 C160.868558,405.000365 164.151605,401.716581 164.151605,397.703068 C164.151605,393.689554 160.868558,390.40577 156.855945,390.40577" id="Fill-86" fill="#9AE0E6"></path>
                            <path d="M280.881424,372.753973 L280.695384,373.315865 C280.334249,374.403162 279.477009,375.260595 278.389956,375.621811 L277.824543,375.811541 L278.389956,375.997622 C279.477009,376.362486 280.334249,377.21627 280.695384,378.307216 L280.881424,378.869108 L281.071111,378.307216 C281.432246,377.21627 282.289486,376.362486 283.376539,375.997622 L283.938305,375.811541 L283.376539,375.621811 C282.289486,375.260595 281.432246,374.403162 281.071111,373.315865 L280.881424,372.753973" id="Fill-88" fill="#9AE0E6"></path>
                            <path d="M280.883612,357.568297 C279.30775,357.568297 277.917927,358.568027 277.421822,360.060324 L274.35035,369.276811 L265.13958,372.348973 C263.64397,372.848838 262.644464,374.235324 262.644464,375.811541 C262.644464,377.387757 263.64397,378.774243 265.13958,379.270459 L274.35035,382.342622 L277.421822,391.559108 C277.917927,393.055054 279.30775,394.054784 280.883612,394.054784 C282.459475,394.054784 283.84565,393.055054 284.341755,391.559108 L287.413228,382.342622 L296.627645,379.270459 C298.119608,378.774243 299.122761,377.387757 299.122761,375.811541 C299.122761,374.235324 298.119608,372.848838 296.627645,372.348973 L287.413228,369.276811 L284.341755,360.060324 C283.84565,358.568027 282.459475,357.568297 280.883612,357.568297 M280.693925,373.315865 L280.879965,372.753973 L281.069652,373.315865 C281.430787,374.403162 282.288027,375.260595 283.37508,375.621811 L283.936846,375.811541 L283.37508,375.997622 C282.288027,376.362486 281.430787,377.21627 281.069652,378.307216 L280.879965,378.869108 L280.693925,378.307216 C280.33279,377.21627 279.47555,376.362486 278.388497,375.997622 L277.826731,375.811541 L278.388497,375.621811 C279.47555,375.260595 280.33279,374.403162 280.693925,373.315865" id="Fill-90" fill="#9AE0E6"></path>
                            <path d="M193.334607,15.1860405 L193.148567,15.7479324 C192.783784,16.8352297 191.926544,17.6926622 190.839491,18.0538784 L190.277725,18.2436081 L190.839491,18.4296892 C191.926544,18.7909054 192.783784,19.6519865 193.148567,20.7392838 L193.334607,21.297527 L193.520646,20.7392838 C193.885429,19.6519865 194.742669,18.7909054 195.829722,18.4296892 L196.391488,18.2436081 L195.829722,18.0538784 C194.742669,17.6926622 193.885429,16.8352297 193.520646,15.7479324 L193.334607,15.1860405" id="Fill-92" fill="#9AE0E6"></path>
                            <path d="M193.334607,0 C191.758744,0 190.372569,0.99972973 189.876464,2.49567568 L186.801344,11.7085135 L177.590574,14.7806757 C176.094964,15.2805405 175.095458,16.667027 175.095458,18.2432432 C175.095458,19.8194595 176.094964,21.2059459 177.590574,21.7058108 L186.804991,24.7743243 L189.876464,33.9908108 C190.372569,35.4867568 191.758744,36.4864865 193.334607,36.4864865 C194.910469,36.4864865 196.296644,35.4867568 196.792749,33.9908108 L199.867869,24.7743243 L209.078639,21.7058108 C210.574249,21.2059459 211.573755,19.8194595 211.573755,18.2432432 C211.573755,16.667027 210.574249,15.2805405 209.078639,14.7806757 L199.864222,11.7085135 L196.792749,2.49567568 C196.296644,0.99972973 194.910469,0 193.334607,0 M193.148567,15.7475676 L193.334607,15.1856757 L193.520646,15.7475676 C193.885429,16.8348649 194.742669,17.6922973 195.829722,18.0571622 L196.391488,18.2432432 L195.829722,18.4293243 C194.742669,18.7941892 193.885429,19.6516216 193.520646,20.7389189 L193.334607,21.3008108 L193.148567,20.7389189 C192.783784,19.6516216 191.926544,18.7941892 190.839491,18.4293243 L190.277725,18.2432432 L190.839491,18.0571622 C191.926544,17.6922973 192.783784,16.8348649 193.148567,15.7475676" id="Fill-94" fill="#9AE0E6"></path>
                            <path d="M288.179272,10.9452162 C284.166659,10.9452162 280.883612,14.229 280.883612,18.2425135 C280.883612,22.256027 284.166659,25.5398108 288.179272,25.5398108 C292.191884,25.5398108 295.474931,22.256027 295.474931,18.2425135 C295.474931,14.229 292.191884,10.9452162 288.179272,10.9452162" id="Fill-96" fill="#9AE0E6"></path>
                            <path d="M10.9427594,135.00073 C6.93014676,135.00073 3.64710008,138.284514 3.64710008,142.298027 C3.64710008,146.311541 6.93014676,149.595324 10.9427594,149.595324 C14.955372,149.595324 18.2384187,146.311541 18.2384187,142.298027 C18.2384187,138.284514 14.955372,135.00073 10.9427594,135.00073" id="Fill-98" fill="#9AE0E6"></path>
                            <path d="M14.6196,218.593459 C14.5084485,218.716548 14.3933273,218.835665 14.266297,218.946842 C14.3933273,219.058018 14.5084485,219.173165 14.6196,219.300224 C14.7307515,219.173165 14.8498424,219.058018 14.972903,218.946842 C14.8498424,218.835665 14.7307515,218.716548 14.6196,218.593459" id="Fill-100" fill="#9AE0E6"></path>
                            <path d="M14.5916834,204.325054 C13.015821,204.325054 11.6296457,205.324784 11.129893,206.817081 L8.97037789,213.297081 L2.49548026,215.457081 C0.999870106,215.953297 0.000364782965,217.343432 0.000364782965,218.919649 C0.000364782965,220.495865 0.999870106,221.882351 2.49548026,222.378568 L8.97037789,224.538568 L11.129893,231.018568 C11.6296457,232.514514 13.015821,233.514243 14.5916834,233.514243 C16.1675458,233.514243 17.553721,232.514514 18.0498259,231.018568 L20.209341,224.538568 L26.6878865,222.378568 C28.1834966,221.882351 29.183002,220.495865 29.183002,218.919649 C29.183002,217.343432 28.1834966,215.953297 26.6878865,215.457081 L20.209341,213.297081 L18.0498259,206.817081 C17.553721,205.324784 16.1675458,204.325054 14.5916834,204.325054 M14.2670265,218.919649 C14.3801093,218.817486 14.4895441,218.708027 14.5916834,218.594919 C14.6938226,218.708027 14.7996097,218.817486 14.9163402,218.919649 C14.7996097,219.018162 14.6938226,219.127622 14.5916834,219.244378 C14.4895441,219.127622 14.3801093,219.018162 14.2670265,218.919649" id="Fill-102" fill="#9AE0E6"></path>
                        </g>
                    </g>
                </g>
            </g>
        </g>
    </g>
</svg>